<?xml version="1.0" encoding="iso-8859-1"?>
<!-- Generator: Adobe Illustrator 21.0.0, SVG Export Plug-In . SVG Version: 6.00 Build 0)  -->
<svg version="1.1" id="Capa_1" xmlns="http://www.w3.org/2000/svg" xmlns:xlink="http://www.w3.org/1999/xlink" x="0px" y="0px"
	 viewBox="0 0 512 512" style="enable-background:new 0 0 512 512;" xml:space="preserve">
<linearGradient id="SVGID_1_" gradientUnits="userSpaceOnUse" x1="45.6946" y1="143.6416" x2="144.3986" y2="143.6416" gradientTransform="matrix(1.0039 0 0 -1.0039 0.1922 516.5612)">
	<stop  offset="0" style="stop-color:#FF4C54"/>
	<stop  offset="1" style="stop-color:#BE3F45"/>
</linearGradient>
<path style="fill:url(#SVGID_1_);" d="M96.161,298.893H18.034l13.751,38.777c7.403,20.876,11.186,42.862,11.186,65.012v4.074
	c0,21.574,17.489,39.064,39.064,39.064l0,0c21.574,0,39.064-17.489,39.064-39.064v-4.074c0-22.15-3.783-44.136-11.186-65.012
	L96.161,298.893z"/>
<linearGradient id="SVGID_2_" gradientUnits="userSpaceOnUse" x1="89.2986" y1="141.8831" x2="41.9886" y2="141.8831" gradientTransform="matrix(1.0039 0 0 -1.0039 0.1922 516.5612)">
	<stop  offset="0" style="stop-color:#FF4C54"/>
	<stop  offset="1" style="stop-color:#BE3F45"/>
</linearGradient>
<path style="fill:url(#SVGID_2_);" d="M56.957,348.497c5.655,15.947,8.544,32.743,8.544,49.663v3.441
	c0,8.714,7.065,15.779,15.779,15.779l0,0c8.714,0,15.779-7.065,15.779-15.779v-3.441c0-16.92-2.89-33.716-8.544-49.663
	l-4.988-10.557c-2.042-4.321-6.392-7.078-11.172-7.078h-4.226C59.064,330.863,53.084,340.301,56.957,348.497L56.957,348.497z"/>
<linearGradient id="SVGID_3_" gradientUnits="userSpaceOnUse" x1="124.3886" y1="148.1831" x2="-20.6414" y2="293.2131" gradientTransform="matrix(1.0039 0 0 -1.0039 0.1922 516.5612)">
	<stop  offset="0" style="stop-color:#BE3F45;stop-opacity:0"/>
	<stop  offset="1" style="stop-color:#BE3F45"/>
</linearGradient>
<path style="fill:url(#SVGID_3_);" d="M96.161,298.893H18.034l1.026,2.892l102.038,102.038v-1.139
	c0-22.15-3.783-44.136-11.186-65.012L96.161,298.893z"/>
<linearGradient id="SVGID_4_" gradientUnits="userSpaceOnUse" x1="86.9126" y1="298.5432" x2="86.9126" y2="227.1131" gradientTransform="matrix(1.0039 0 0 -1.0039 0.1922 516.5612)">
	<stop  offset="0" style="stop-color:#FFB92D"/>
	<stop  offset="1" style="stop-color:#F59500"/>
</linearGradient>
<path style="fill:url(#SVGID_4_);" d="M0,271.415v-76.08c0-18.748,15.198-33.947,33.947-33.947h106.998
	c18.748,0,33.947,15.198,33.947,33.947v76.08c0,18.748-15.198,33.947-33.947,33.947H33.947C15.198,305.362,0,290.164,0,271.415z"/>
<linearGradient id="SVGID_5_" gradientUnits="userSpaceOnUse" x1="236.0303" y1="310.3632" x2="236.0303" y2="166.6031" gradientTransform="matrix(1.0039 0 0 -1.0039 0.1922 516.5612)">
	<stop  offset="0" style="stop-color:#FFB92D"/>
	<stop  offset="1" style="stop-color:#F59500"/>
</linearGradient>
<path style="fill:url(#SVGID_5_);" d="M325.783,388.989c-66.188-32.351-134.015-60.764-203.577-85.146
	c-9.391-3.291-15.678-12.149-15.678-22.1v-96.736c0-9.951,6.289-18.809,15.678-22.1c69.563-24.381,137.39-52.794,203.577-85.146
	c14.491-7.083,31.646,2.179,33.601,18.188c11.181,91.544,11.18,183.311,0,274.853C357.429,386.811,340.273,396.071,325.783,388.989z
	"/>
<linearGradient id="SVGID_6_" gradientUnits="userSpaceOnUse" x1="191.7787" y1="216.0032" x2="-105.9813" y2="513.7592" gradientTransform="matrix(1.0039 0 0 -1.0039 0.1922 516.5612)">
	<stop  offset="0" style="stop-color:#BE3F45;stop-opacity:0"/>
	<stop  offset="1" style="stop-color:#BE3F45"/>
</linearGradient>
<path style="fill:url(#SVGID_6_);" d="M354.024,383.088L130.796,159.86c-2.862,1.019-5.722,2.042-8.591,3.047
	c-9.391,3.291-15.678,12.149-15.678,22.1v96.736c0,9.951,6.289,18.809,15.678,22.1c69.563,24.381,137.39,52.794,203.577,85.146
	C335.941,393.954,347.401,390.88,354.024,383.088z"/>
<linearGradient id="SVGID_7_" gradientUnits="userSpaceOnUse" x1="337.8386" y1="282.0807" x2="361.6586" y2="282.0807" gradientTransform="matrix(1.0039 0 0 -1.0039 0.1922 516.5612)">
	<stop  offset="0" style="stop-color:#FFF465"/>
	<stop  offset="1" style="stop-color:#FFE600"/>
</linearGradient>
<path style="fill:url(#SVGID_7_);" d="M359.273,83.256c-1.697-13.255-15.925-20.924-27.954-15.105l0,0
	c-7.687,3.718-11.643,12.142-10.131,20.546c0.083,0.464,0.155,0.934,0.213,1.41c11.656,95.435,11.656,191.101,0,286.534
	c-0.058,0.476-0.13,0.946-0.213,1.409c-1.513,8.404,2.444,16.829,10.131,20.546l0,0c12.029,5.819,26.258-1.851,27.954-15.105
	C372.071,283.505,372.072,183.247,359.273,83.256z"/>
<linearGradient id="SVGID_8_" gradientUnits="userSpaceOnUse" x1="106.5986" y1="282.0801" x2="128.2286" y2="282.0801" gradientTransform="matrix(1.0039 0 0 -1.0039 0.1922 516.5612)">
	<stop  offset="0" style="stop-color:#FFF465"/>
	<stop  offset="1" style="stop-color:#FFE600"/>
</linearGradient>
<path style="fill:url(#SVGID_8_);" d="M112.212,317.197L112.212,317.197c-12.044,0-21.807-9.763-21.807-21.807V171.36
	c0-12.044,9.763-21.807,21.807-21.807l0,0c12.044,0,21.807,9.763,21.807,21.807V295.39
	C134.021,307.434,124.256,317.197,112.212,317.197z"/>
<linearGradient id="SVGID_9_" gradientUnits="userSpaceOnUse" x1="411.1203" y1="280.5822" x2="373.1285" y2="282.3018" gradientTransform="matrix(1.0039 0 0 -1.0039 0.1922 516.5612)">
	<stop  offset="0" style="stop-color:#C3C3C3"/>
	<stop  offset="1" style="stop-color:#F2F2F2"/>
</linearGradient>
<path style="fill:url(#SVGID_9_);" d="M392.989,288.872c-0.932,0-1.874-0.079-2.823-0.243c-8.958-1.548-14.964-10.065-13.415-19.023
	c1.355-7.842,2.283-16.157,2.756-24.716c0.925-16.715-0.023-33.073-2.668-46.062c-1.814-8.908,3.936-17.6,12.844-19.414
	c8.913-1.811,17.6,3.936,19.414,12.844c3.237,15.894,4.371,34.721,3.28,54.448c-0.543,9.824-1.615,19.415-3.187,28.505
	C407.805,283.221,400.849,288.872,392.989,288.872z"/>
<linearGradient id="SVGID_10_" gradientUnits="userSpaceOnUse" x1="459.7803" y1="280.6169" x2="416.2893" y2="282.5869" gradientTransform="matrix(1.0039 0 0 -1.0039 0.1922 516.5612)">
	<stop  offset="0" style="stop-color:#C3C3C3"/>
	<stop  offset="1" style="stop-color:#F2F2F2"/>
</linearGradient>
<path style="fill:url(#SVGID_10_);" d="M431.415,319.472c-1.95,0-3.931-0.348-5.862-1.084c-8.494-3.239-12.754-12.751-9.515-21.245
	c7.124-18.681,11.567-40.822,12.85-64.034c1.282-23.194-0.696-45.547-5.718-64.644c-2.313-8.791,2.939-17.794,11.731-20.106
	c8.788-2.316,17.793,2.939,20.106,11.731c5.887,22.377,8.221,48.256,6.751,74.836c-1.468,26.561-6.641,52.131-14.96,73.947
	C444.296,315.436,438.046,319.472,431.415,319.472z"/>
<linearGradient id="SVGID_11_" gradientUnits="userSpaceOnUse" x1="509.4039" y1="278.8437" x2="454.6882" y2="281.3239" gradientTransform="matrix(1.0039 0 0 -1.0039 0.1922 516.5612)">
	<stop  offset="0" style="stop-color:#C3C3C3"/>
	<stop  offset="1" style="stop-color:#F2F2F2"/>
</linearGradient>
<path style="fill:url(#SVGID_11_);" d="M468.669,349.004c-2.697,0-5.43-0.664-7.957-2.062c-7.953-4.403-10.832-14.419-6.429-22.372
	c14.147-25.557,22.594-56.599,24.428-89.772c1.832-33.132-3.141-64.618-14.38-91.053c-3.557-8.366,0.341-18.031,8.707-21.588
	c8.366-3.556,18.031,0.342,21.588,8.707c13.201,31.046,19.064,67.615,16.954,105.751c-2.106,38.098-11.961,74.024-28.496,103.898
	C480.08,345.94,474.461,349.004,468.669,349.004z"/>
<g>
</g>
<g>
</g>
<g>
</g>
<g>
</g>
<g>
</g>
<g>
</g>
<g>
</g>
<g>
</g>
<g>
</g>
<g>
</g>
<g>
</g>
<g>
</g>
<g>
</g>
<g>
</g>
<g>
</g>
</svg>
