<?xml version="1.0" encoding="iso-8859-1"?>
<!-- Generator: Adobe Illustrator 21.0.0, SVG Export Plug-In . SVG Version: 6.00 Build 0)  -->
<svg version="1.1" id="Capa_1" xmlns="http://www.w3.org/2000/svg" xmlns:xlink="http://www.w3.org/1999/xlink" x="0px" y="0px"
	 viewBox="0 0 512 512" style="enable-background:new 0 0 512 512;" xml:space="preserve">
<g>
	
		<linearGradient id="SVGID_1_" gradientUnits="userSpaceOnUse" x1="187.9286" y1="225.413" x2="187.9286" y2="53.313" gradientTransform="matrix(1.0039 0 0 -1.0039 0.1922 516.5609)">
		<stop  offset="0" style="stop-color:#A7F3CE"/>
		<stop  offset="1" style="stop-color:#61DB99"/>
	</linearGradient>
	<circle style="fill:url(#SVGID_1_);" cx="188.858" cy="298.265" r="23.741"/>
	
		<linearGradient id="SVGID_2_" gradientUnits="userSpaceOnUse" x1="254.8086" y1="225.413" x2="254.8086" y2="53.313" gradientTransform="matrix(1.0039 0 0 -1.0039 0.1922 516.5609)">
		<stop  offset="0" style="stop-color:#A7F3CE"/>
		<stop  offset="1" style="stop-color:#61DB99"/>
	</linearGradient>
	<circle style="fill:url(#SVGID_2_);" cx="256" cy="298.265" r="23.741"/>
	
		<linearGradient id="SVGID_3_" gradientUnits="userSpaceOnUse" x1="321.6886" y1="225.413" x2="321.6886" y2="53.313" gradientTransform="matrix(1.0039 0 0 -1.0039 0.1922 516.5609)">
		<stop  offset="0" style="stop-color:#A7F3CE"/>
		<stop  offset="1" style="stop-color:#61DB99"/>
	</linearGradient>
	<circle style="fill:url(#SVGID_3_);" cx="323.142" cy="298.265" r="23.741"/>
</g>
<linearGradient id="SVGID_4_" gradientUnits="userSpaceOnUse" x1="254.8086" y1="480.491" x2="254.8086" y2="239.6" gradientTransform="matrix(1.0039 0 0 -1.0039 0.1922 516.5609)">
	<stop  offset="0" style="stop-color:#FF4C54"/>
	<stop  offset="1" style="stop-color:#BE3F45"/>
</linearGradient>
<path style="fill:url(#SVGID_4_);" d="M256,34.186c-124.955,0-226.256,101.301-226.256,226.256c0,5.237,0.176,10.43,0.537,15.58
	h67.063c-0.504-5.127-0.756-10.32-0.756-15.58c0-88.044,71.369-159.412,159.412-159.412c88.044,0,159.412,71.369,159.412,159.412
	c0,5.259-0.252,10.452-0.756,15.58h67.063c0.361-5.149,0.537-10.342,0.537-15.58C482.256,135.486,380.955,34.186,256,34.186z"/>
<linearGradient id="SVGID_5_" gradientUnits="userSpaceOnUse" x1="254.8076" y1="241.503" x2="254.8076" y2="457.163" gradientTransform="matrix(1.0039 0 0 -1.0039 0.1922 516.5609)">
	<stop  offset="0" style="stop-color:#FF4C54"/>
	<stop  offset="1" style="stop-color:#BE3F45"/>
</linearGradient>
<path style="fill:url(#SVGID_5_);" d="M256,77.918c-95.317,0-172.59,82.981-172.59,185.34c0,4.29,0.134,8.544,0.41,12.762h13.524
	c-0.504-5.127-0.756-10.32-0.756-15.58c0-88.044,71.369-159.412,159.412-159.412c88.044,0,159.412,71.369,159.412,159.412
	c0,5.259-0.252,10.452-0.756,15.58h13.524c0.276-4.218,0.41-8.472,0.41-12.762C428.59,160.901,351.317,77.918,256,77.918z"/>
<linearGradient id="SVGID_6_" gradientUnits="userSpaceOnUse" x1="127.9356" y1="270.293" x2="127.9356" y2="90.273" gradientTransform="matrix(1.0039 0 0 -1.0039 0.1922 516.5609)">
	<stop  offset="0" style="stop-color:#F2F2F2"/>
	<stop  offset="1" style="stop-color:#C3C3C3"/>
</linearGradient>
<path style="fill:url(#SVGID_6_);" d="M213.425,469.005h-49.347c-66.303,0-120.244-53.941-120.244-120.244v-12.189h21.913v12.189
	c0,54.22,44.111,98.331,98.331,98.331h49.347V469.005z"/>
<linearGradient id="SVGID_7_" gradientUnits="userSpaceOnUse" x1="84.5171" y1="136.9215" x2="53.0471" y2="168.3915" gradientTransform="matrix(1.0039 0 0 -1.0039 0.1922 516.5609)">
	<stop  offset="0" style="stop-color:#C3C3C3;stop-opacity:0"/>
	<stop  offset="1" style="stop-color:#777777"/>
</linearGradient>
<path style="fill:url(#SVGID_7_);" d="M76.889,394.187c-7.113-13.596-11.143-29.048-11.143-45.425v-12.189H43.834v12.189
	c0,4.421,0.247,8.786,0.715,13.085L76.889,394.187z"/>
<linearGradient id="SVGID_8_" gradientUnits="userSpaceOnUse" x1="51.0806" y1="284.54" x2="51.0806" y2="153.633" gradientTransform="matrix(1.0039 0 0 -1.0039 0.1922 516.5609)">
	<stop  offset="0" style="stop-color:#62E1FB"/>
	<stop  offset="1" style="stop-color:#00A2F3"/>
</linearGradient>
<path style="fill:url(#SVGID_8_);" d="M102.946,362.325H52.81c-29.166,0-52.81-23.643-52.81-52.81v-25.8
	c0-29.166,23.644-52.81,52.81-52.81h50.136V362.325z"/>
<linearGradient id="SVGID_9_" gradientUnits="userSpaceOnUse" x1="171.4744" y1="144.1567" x2="197.0844" y2="116.4667" gradientTransform="matrix(1.0039 0 0 -1.0039 0.1922 516.5609)">
	<stop  offset="0" style="stop-color:#FFB92D"/>
	<stop  offset="1" style="stop-color:#F59500"/>
</linearGradient>
<path style="fill:url(#SVGID_9_);" d="M102.766,370.463L102.766,370.463c-10.146,0-18.37-8.224-18.37-18.37V241.138
	c0-10.146,8.224-18.37,18.37-18.37l0,0c10.146,0,18.37,8.224,18.37,18.37v110.954C121.136,362.238,112.912,370.463,102.766,370.463z
	"/>
<linearGradient id="SVGID_10_" gradientUnits="userSpaceOnUse" x1="458.5366" y1="284.54" x2="458.5366" y2="153.633" gradientTransform="matrix(1.0039 0 0 -1.0039 0.1922 516.5609)">
	<stop  offset="0" style="stop-color:#62E1FB"/>
	<stop  offset="1" style="stop-color:#00A2F3"/>
</linearGradient>
<path style="fill:url(#SVGID_10_);" d="M409.054,362.325h50.136c29.166,0,52.81-23.644,52.81-52.81v-25.8
	c0-29.166-23.644-52.81-52.81-52.81h-50.136V362.325z"/>
<linearGradient id="SVGID_11_" gradientUnits="userSpaceOnUse" x1="473.2066" y1="160.841" x2="327.4066" y2="306.641" gradientTransform="matrix(1.0039 0 0 -1.0039 0.1922 516.5609)">
	<stop  offset="0" style="stop-color:#00A2F3;stop-opacity:0"/>
	<stop  offset="1" style="stop-color:#0075CD"/>
</linearGradient>
<path style="fill:url(#SVGID_11_);" d="M424.517,230.942l-0.011-0.037h-15.451v131.42h50.136c26.355,0,48.195-19.307,52.163-44.548
	L424.517,230.942z"/>
<linearGradient id="SVGID_12_" gradientUnits="userSpaceOnUse" x1="476.7444" y1="144.1566" x2="502.3544" y2="116.4667" gradientTransform="matrix(1.0039 0 0 -1.0039 0.1922 516.5609)">
	<stop  offset="0" style="stop-color:#FFB92D"/>
	<stop  offset="1" style="stop-color:#F59500"/>
</linearGradient>
<path style="fill:url(#SVGID_12_);" d="M409.234,370.463L409.234,370.463c-10.146,0-18.37-8.224-18.37-18.37V241.138
	c0-10.146,8.224-18.37,18.37-18.37l0,0c10.146,0,18.37,8.224,18.37,18.37v110.954C427.603,362.238,419.379,370.463,409.234,370.463z
	"/>
<linearGradient id="SVGID_13_" gradientUnits="userSpaceOnUse" x1="254.8086" y1="425.67" x2="254.8086" y2="327.0175" gradientTransform="matrix(1.0039 0 0 -1.0039 0.1922 516.5609)">
	<stop  offset="0" style="stop-color:#62E1FB"/>
	<stop  offset="1" style="stop-color:#00A2F3"/>
</linearGradient>
<path style="fill:url(#SVGID_13_);" d="M256,89.222c-58.963,0-110.672,37.719-139.728,94.398l0.09,0.086
	c7.609,7.319,19.958,5.567,25.43-3.461c25.104-41.413,66.893-68.523,114.207-68.523s89.103,27.11,114.207,68.523
	c5.472,9.028,17.822,10.78,25.43,3.462l0.09-0.086C366.671,126.941,314.963,89.222,256,89.222z"/>
<linearGradient id="SVGID_14_" gradientUnits="userSpaceOnUse" x1="201.8671" y1="74.073" x2="201.8671" y2="46.383" gradientTransform="matrix(1.0039 0 0 -1.0039 0.1922 516.5609)">
	<stop  offset="0" style="stop-color:#FFB92D"/>
	<stop  offset="1" style="stop-color:#F59500"/>
</linearGradient>
<path style="fill:url(#SVGID_14_);" d="M205.523,477.814h-5.344c-11.173,0-20.229-9.057-20.229-20.229l0,0
	c0-11.173,9.057-20.229,20.229-20.229h5.344c11.173,0,20.229,9.057,20.229,20.229l0,0
	C225.752,468.758,216.694,477.814,205.523,477.814z"/>
<g>
</g>
<g>
</g>
<g>
</g>
<g>
</g>
<g>
</g>
<g>
</g>
<g>
</g>
<g>
</g>
<g>
</g>
<g>
</g>
<g>
</g>
<g>
</g>
<g>
</g>
<g>
</g>
<g>
</g>
</svg>
