<?xml version="1.0" encoding="iso-8859-1"?>
<!-- Generator: Adobe Illustrator 21.0.0, SVG Export Plug-In . SVG Version: 6.00 Build 0)  -->
<svg version="1.1" id="Capa_1" xmlns="http://www.w3.org/2000/svg" xmlns:xlink="http://www.w3.org/1999/xlink" x="0px" y="0px"
	 viewBox="0 0 512.001 512.001" style="enable-background:new 0 0 512.001 512.001;" xml:space="preserve">
<linearGradient id="SVGID_1_" gradientUnits="userSpaceOnUse" x1="346.8089" y1="110.3036" x2="427.3889" y2="29.7136" gradientTransform="matrix(1.0039 0 0 -1.0039 0.1922 516.5634)">
	<stop  offset="0" style="stop-color:#3B4041"/>
	<stop  offset="0.373" style="stop-color:#6F7273"/>
	<stop  offset="1" style="stop-color:#C3C3C3"/>
</linearGradient>
<path style="fill:url(#SVGID_1_);" d="M422.768,485.33V73.365c0-14.723-11.949-26.671-26.671-26.671h-348.4
	c-14.723,0-26.671,11.949-26.671,26.671V485.33c0,14.723,11.949,26.671,26.671,26.671h348.399
	C410.82,512.001,422.768,500.053,422.768,485.33z"/>
<linearGradient id="SVGID_2_" gradientUnits="userSpaceOnUse" x1="220.8385" y1="315.3242" x2="220.8385" y2="-284.0558" gradientTransform="matrix(1.0039 0 0 -1.0039 0.1922 516.5634)">
	<stop  offset="0" style="stop-color:#F2F2F2"/>
	<stop  offset="1" style="stop-color:#C3C3C3"/>
</linearGradient>
<path style="fill:url(#SVGID_2_);" d="M288.504,512.001H47.697c-14.731,0-26.671-11.942-26.671-26.671V73.365
	c0-14.731,11.942-26.671,26.671-26.671h348.399c14.731,0,26.671,11.942,26.671,26.671v311.357c0,4.082-1.605,7.999-4.47,10.907
	L314.255,501.222C307.462,508.118,298.185,512.001,288.504,512.001z"/>
<linearGradient id="SVGID_3_" gradientUnits="userSpaceOnUse" x1="163.7695" y1="236.2892" x2="374.7095" y2="236.2892" gradientTransform="matrix(1.0039 0 0 -1.0039 0.1922 516.5634)">
	<stop  offset="0" style="stop-color:#C3C3C3;stop-opacity:0"/>
	<stop  offset="1" style="stop-color:#777777"/>
</linearGradient>
<path style="fill:url(#SVGID_3_);" d="M221.897,512.001H44.952c-13.215,0-23.926-11.941-23.926-26.671v-51.564V73.365
	c0-14.731,10.712-26.671,23.926-26.671h176.944V512.001z"/>
<linearGradient id="SVGID_4_" gradientUnits="userSpaceOnUse" x1="178.7139" y1="182.7983" x2="14.7539" y2="394.1383" gradientTransform="matrix(1.0039 0 0 -1.0039 0.1922 516.5634)">
	<stop  offset="0" style="stop-color:#C3C3C3;stop-opacity:0"/>
	<stop  offset="1" style="stop-color:#777777"/>
</linearGradient>
<path style="fill:url(#SVGID_4_);" d="M422.767,279.675v208.066c0,13.399-11.941,24.261-26.671,24.261h-51.564H47.697
	c-14.731,0-26.671-10.862-26.671-24.261V279.675C21.026,278.201,422.767,279.675,422.767,279.675z"/>
<linearGradient id="SVGID_5_" gradientUnits="userSpaceOnUse" x1="336.28" y1="81.4247" x2="368" y2="49.7047" gradientTransform="matrix(1.0039 0 0 -1.0039 0.1922 516.5634)">
	<stop  offset="0" style="stop-color:#F2F2F2"/>
	<stop  offset="1" style="stop-color:#C3C3C3"/>
</linearGradient>
<path style="fill:url(#SVGID_5_);" d="M421.402,391.091c0,0-0.788,2.233-3.89,5.335c-1.153,1.153-102.644,104.176-102.644,104.176
	c-7.186,7.293-16.996,11.4-27.234,11.4l0,0l0,0c8.839,0,16.003-7.165,16.003-16.003v-78.236c0-14.731,11.942-26.671,26.671-26.671
	h91.095V391.091z"/>
<g>
	<rect x="89.28" y="279.975" style="fill:#777777;" width="265.236" height="18.161"/>
	<rect x="89.28" y="349.326" style="fill:#777777;" width="265.236" height="18.161"/>
	<rect x="89.28" y="418.667" style="fill:#777777;" width="159.995" height="18.161"/>
	<rect x="89.28" y="141.273" style="fill:#777777;" width="265.236" height="18.161"/>
	<rect x="89.28" y="210.614" style="fill:#777777;" width="265.236" height="18.161"/>
</g>
<linearGradient id="SVGID_6_" gradientUnits="userSpaceOnUse" x1="429.6763" y1="121.6831" x2="351.1264" y2="341.9331" gradientTransform="matrix(1.0039 0 0 -1.0039 0.1922 516.5634)">
	<stop  offset="0" style="stop-color:#C3C3C3;stop-opacity:0"/>
	<stop  offset="0.252" style="stop-color:#A6A6A6;stop-opacity:0.252"/>
	<stop  offset="0.539" style="stop-color:#8C8C8C;stop-opacity:0.539"/>
	<stop  offset="0.797" style="stop-color:#7D7D7D;stop-opacity:0.797"/>
	<stop  offset="1" style="stop-color:#777777"/>
</linearGradient>
<path style="fill:url(#SVGID_6_);" d="M422.767,384.724v-0.002V73.364c0-14.731-11.942-26.671-26.671-26.671H287.653l-0.919,7.839
	c-0.309,2.638-1.867,4.968-4.189,6.26l-13.462,7.496c-3.351,1.866-4.978,5.793-3.93,9.483l4.212,14.823
	c0.726,2.554,0.181,5.301-1.464,7.384l-9.56,12.105c-2.372,3.004-2.372,7.243,0,10.247l9.56,12.105
	c1.645,2.083,2.19,4.83,1.464,7.384l-4.212,14.823c-1.015,3.57,0.481,7.355,3.613,9.288l18.52,18.665l1.242,10.603
	c0.302,2.576,1.778,4.781,3.879,6.076c0.678,1.1,1.605,2.027,2.706,2.706c0.678,1.1,1.605,2.027,2.706,2.705
	c0.177,0.288,0.373,0.561,0.583,0.824l-0.021,113.006c-0.001,3.174,1.647,5.737,3.971,7.213l120.416,120.416v-63.421H422.767z"/>
<linearGradient id="SVGID_7_" gradientUnits="userSpaceOnUse" x1="372.118" y1="282.8342" x2="372.118" y2="379.9742" gradientTransform="matrix(1.0039 0 0 -1.0039 0.1922 516.5634)">
	<stop  offset="0" style="stop-color:#62E1FB"/>
	<stop  offset="1" style="stop-color:#00A2F3"/>
</linearGradient>
<path style="fill:url(#SVGID_7_);" d="M435.739,327.628l-61.981-42.129l-61.997,42.104c-5.689,3.864-13.383-0.212-13.381-7.09
	l0.036-191.543L449.159,129l-0.036,191.543C449.121,327.42,441.426,331.494,435.739,327.628z"/>
<linearGradient id="SVGID_8_" gradientUnits="userSpaceOnUse" x1="372.1195" y1="298.6742" x2="372.1195" y2="379.0842" gradientTransform="matrix(1.0039 0 0 -1.0039 0.1922 516.5634)">
	<stop  offset="0" style="stop-color:#F2F2F2"/>
	<stop  offset="1" style="stop-color:#C3C3C3"/>
</linearGradient>
<polygon style="fill:url(#SVGID_8_);" points="373.758,285.499 400.441,303.635 400.474,128.991 347.102,128.98 347.068,303.625 "/>
<linearGradient id="SVGID_9_" gradientUnits="userSpaceOnUse" x1="422.951" y1="270.1642" x2="422.951" y2="359.9642" gradientTransform="matrix(1.0039 0 0 -1.0039 0.1922 516.5634)">
	<stop  offset="0" style="stop-color:#FF4C54"/>
	<stop  offset="1" style="stop-color:#BE3F45"/>
</linearGradient>
<path style="fill:url(#SVGID_9_);" d="M449.159,129.003l-0.034,191.537c0,6.883-7.698,10.952-13.389,7.09l-35.292-23.997
	l0.034-174.638L449.159,129.003z"/>
<linearGradient id="SVGID_10_" gradientUnits="userSpaceOnUse" x1="399.0274" y1="255.3336" x2="357.9874" y2="399.3437" gradientTransform="matrix(1.0039 0 0 -1.0039 0.1922 516.5634)">
	<stop  offset="0" style="stop-color:#00A2F3;stop-opacity:0"/>
	<stop  offset="1" style="stop-color:#0075CD"/>
</linearGradient>
<path style="fill:url(#SVGID_10_);" d="M298.403,201.95l100.935,100.935l36.401,24.742c5.688,3.866,13.383-0.207,13.384-7.085
	l0.037-191.543l-150.744-0.029L298.403,201.95z"/>
<linearGradient id="SVGID_11_" gradientUnits="userSpaceOnUse" x1="305.6489" y1="464.2637" x2="487.0189" y2="282.8937" gradientTransform="matrix(1.0039 0 0 -1.0039 0.1922 516.5634)">
	<stop  offset="0" style="stop-color:#FFF465"/>
	<stop  offset="1" style="stop-color:#FFE600"/>
</linearGradient>
<path style="fill:url(#SVGID_11_);" d="M489.197,122.331l-9.56,12.105c-1.645,2.083-2.19,4.83-1.465,7.384l4.212,14.823
	c1.049,3.689-0.578,7.617-3.93,9.483l-13.462,7.496c-2.321,1.293-3.88,3.622-4.189,6.26l-1.794,15.316
	c-0.446,3.804-3.445,6.804-7.249,7.249l-15.316,1.794c-2.639,0.309-4.968,1.867-6.26,4.189l-7.496,13.462
	c-1.866,3.351-5.793,4.978-9.483,3.93l-14.823-4.212c-2.554-0.726-5.301-0.181-7.384,1.465l-12.105,9.56
	c-3.004,2.372-7.243,2.372-10.247,0l-12.105-9.56c-2.083-1.645-4.83-2.19-7.384-1.465l-14.823,4.212
	c-3.689,1.049-7.617-0.578-9.483-3.93l-7.496-13.462c-1.293-2.321-3.622-3.88-6.26-4.189l-15.316-1.794
	c-3.804-0.446-6.804-3.445-7.249-7.249l-1.794-15.316c-0.309-2.639-1.867-4.968-4.189-6.26l-13.462-7.496
	c-3.351-1.866-4.978-5.793-3.93-9.483l4.212-14.823c0.726-2.554,0.181-5.301-1.465-7.384l-9.56-12.105
	c-2.372-3.004-2.372-7.243,0-10.247l9.56-12.105c1.645-2.083,2.19-4.83,1.465-7.384l-4.212-14.823
	c-1.049-3.689,0.578-7.617,3.93-9.483l13.462-7.496c2.321-1.293,3.88-3.622,4.189-6.26l1.794-15.316
	c0.446-3.804,3.445-6.804,7.249-7.249l15.316-1.794c2.639-0.309,4.968-1.867,6.26-4.189l7.496-13.462
	c1.866-3.351,5.793-4.978,9.483-3.93l14.823,4.212c2.554,0.726,5.301,0.181,7.384-1.465l12.105-9.56
	c3.004-2.372,7.243-2.372,10.247,0l12.105,9.56c2.083,1.645,4.83,2.19,7.384,1.465l14.823-4.212c3.689-1.049,7.617,0.578,9.483,3.93
	l7.496,13.462c1.293,2.321,3.622,3.88,6.26,4.189l15.316,1.794c3.804,0.446,6.804,3.445,7.249,7.249l1.794,15.316
	c0.309,2.639,1.867,4.968,4.189,6.26l13.462,7.496c3.351,1.866,4.978,5.793,3.93,9.483l-4.212,14.823
	c-0.726,2.554-0.181,5.301,1.465,7.384l9.56,12.105C491.568,115.088,491.568,119.327,489.197,122.331z"/>
<g>
	
		<linearGradient id="SVGID_12_" gradientUnits="userSpaceOnUse" x1="415.67" y1="354.2448" x2="296.82" y2="473.0918" gradientTransform="matrix(1.0039 0 0 -1.0039 0.1922 516.5634)">
		<stop  offset="0" style="stop-color:#FFF465"/>
		<stop  offset="1" style="stop-color:#FFE600"/>
	</linearGradient>
	<circle style="fill:url(#SVGID_12_);" cx="373.771" cy="117.209" r="76.8"/>
	
		<linearGradient id="SVGID_13_" gradientUnits="userSpaceOnUse" x1="415.67" y1="354.2448" x2="296.82" y2="473.0918" gradientTransform="matrix(1.0039 0 0 -1.0039 0.1922 516.5634)">
		<stop  offset="0" style="stop-color:#FFF465"/>
		<stop  offset="1" style="stop-color:#FFE600"/>
	</linearGradient>
	<circle style="fill:url(#SVGID_13_);" cx="373.771" cy="117.209" r="76.8"/>
</g>
<linearGradient id="SVGID_14_" gradientUnits="userSpaceOnUse" x1="336.6295" y1="433.2842" x2="433.4695" y2="336.4442" gradientTransform="matrix(1.0039 0 0 -1.0039 0.1922 516.5634)">
	<stop  offset="0" style="stop-color:#FFF465"/>
	<stop  offset="1" style="stop-color:#FFE600"/>
</linearGradient>
<circle style="fill:url(#SVGID_14_);" cx="373.771" cy="117.209" r="62.584"/>
<g>
</g>
<g>
</g>
<g>
</g>
<g>
</g>
<g>
</g>
<g>
</g>
<g>
</g>
<g>
</g>
<g>
</g>
<g>
</g>
<g>
</g>
<g>
</g>
<g>
</g>
<g>
</g>
<g>
</g>
</svg>
